<svg width="514" height="515" viewBox="0 0 514 515" fill="none" xmlns="http://www.w3.org/2000/svg">
<g clip-path="url(#clip0_485_45549)">
<path d="M233.68 0.043335L496.096 282.765C519.968 310.464 519.968 352.308 496.096 380.007L371.231 514.5M329.94 514.003L472.447 359.77C494.501 334.209 494.501 295.639 472.447 270.032L222.082 0.000671387M288.701 513.47L448.852 339.543C469.041 316.119 469.041 280.779 448.852 257.356L210.536 0.059021M247.463 512.954L425.256 319.288C443.627 298.002 443.627 265.891 425.256 244.605L198.991 0.0440674M206.207 512.457L401.643 299.097C418.149 279.948 418.149 251.067 401.643 231.919L187.427 0.046936M164.976 511.924L378.055 278.824C392.697 261.814 392.697 236.161 378.055 219.151L175.889 0.0142212M123.732 511.409L354.454 258.615C367.277 243.742 367.277 221.319 354.454 206.491L164.338 0.0447388M82.4879 510.911L330.853 238.378C341.811 225.643 341.811 206.449 330.853 193.759L241.82 96.9034L152.787 0.0476074M41.244 510.414L307.252 218.186C316.346 207.589 316.391 191.67 307.252 181.072L141.281 0.0504761M0 509.863L283.651 197.896C290.926 189.482 290.926 176.746 283.651 168.287L129.73 0" stroke="#E6E8EF" stroke-width="0.5"/>
</g>
<defs>
<clipPath id="clip0_485_45549">
<rect width="514" height="514.5" fill="white"/>
</clipPath>
</defs>
</svg>
