<svg width="160" height="49" viewBox="0 0 160 49" fill="none" xmlns="http://www.w3.org/2000/svg">
<path d="M56.258 20.4771C55.1512 20.4771 54.1954 20.2822 53.3905 19.8923C52.5856 19.5024 51.9505 18.9616 51.4852 18.2699C51.0325 17.5657 50.7683 16.7482 50.6929 15.8175L53.183 15.6666C53.2585 16.2451 53.422 16.7356 53.6735 17.1381C53.9376 17.5405 54.2835 17.8486 54.7111 18.0624C55.1512 18.2637 55.6794 18.3643 56.2957 18.3643C56.8239 18.3643 57.2704 18.3014 57.6351 18.1756C58.0124 18.0373 58.2953 17.8423 58.484 17.5908C58.6852 17.3267 58.7858 17.006 58.7858 16.6287C58.7858 16.2892 58.7041 15.9873 58.5406 15.7232C58.3771 15.4465 58.0627 15.2013 57.5973 14.9875C57.132 14.7611 56.4403 14.541 55.5222 14.3272C54.4155 14.0757 53.5289 13.7927 52.8623 13.4783C52.1958 13.1513 51.7116 12.7489 51.4097 12.271C51.1079 11.7805 50.957 11.1706 50.957 10.4411C50.957 9.66139 51.1519 8.97597 51.5418 8.38488C51.9317 7.78121 52.485 7.31588 53.2019 6.9889C53.9187 6.64933 54.7802 6.47955 55.7863 6.47955C56.8553 6.47955 57.7608 6.67449 58.5028 7.06436C59.2449 7.44165 59.8297 7.96357 60.2573 8.63012C60.6849 9.29667 60.949 10.0638 61.0496 10.9316L58.5783 11.0448C58.5154 10.5543 58.3645 10.1267 58.1256 9.762C57.8992 9.39728 57.5848 9.11431 57.1823 8.91309C56.7925 8.69929 56.3145 8.59239 55.7486 8.59239C55.0443 8.59239 54.4847 8.75588 54.0697 9.08287C53.6672 9.39728 53.466 9.81859 53.466 10.3468C53.466 10.7115 53.5477 11.0134 53.7112 11.2523C53.8873 11.4913 54.1954 11.6988 54.6356 11.8748C55.0758 12.0383 55.692 12.2144 56.4843 12.403C57.6791 12.6546 58.6286 12.9753 59.3329 13.3651C60.0372 13.755 60.5402 14.2078 60.8421 14.7234C61.1439 15.239 61.2948 15.8301 61.2948 16.4967C61.2948 17.3141 61.0873 18.0247 60.6723 18.6284C60.2573 19.2195 59.6725 19.6785 58.9179 20.0055C58.1633 20.3199 57.2766 20.4771 56.258 20.4771Z" fill="white"/>
<path d="M63.6146 20.1753V10.1016H65.8029L65.8972 12.9313L65.6142 12.8181C65.7148 12.1138 65.9223 11.5478 66.2368 11.1203C66.5512 10.6927 66.9347 10.3782 67.3875 10.177C67.8402 9.9758 68.337 9.87519 68.8778 9.87519C69.6198 9.87519 70.2423 10.0387 70.7454 10.3657C71.261 10.6927 71.6509 11.1454 71.915 11.7239C72.1791 12.2899 72.3112 12.9501 72.3112 13.7047V20.1753H69.8965V14.4782C69.8965 13.9122 69.8399 13.4343 69.7267 13.0444C69.6135 12.6546 69.4249 12.359 69.1608 12.1578C68.9092 11.944 68.5697 11.8371 68.1421 11.8371C67.5007 11.8371 66.985 12.0635 66.5952 12.5162C66.2179 12.969 66.0292 13.623 66.0292 14.4782V20.1753H63.6146Z" fill="white"/>
<path d="M78.2892 20.4016C77.3711 20.4016 76.6039 20.169 75.9877 19.7037C75.3715 19.2383 74.9061 18.6095 74.5917 17.8172C74.2773 17.0123 74.1201 16.1194 74.1201 15.1384C74.1201 14.1575 74.271 13.2708 74.5729 12.4785C74.8873 11.6862 75.3526 11.0574 75.9688 10.592C76.5977 10.1141 77.3711 9.87519 78.2892 9.87519C79.0186 9.87519 79.6411 10.0198 80.1568 10.3091C80.685 10.5983 81.0874 11.0071 81.3641 11.5353V10.1016H83.7788V20.1753H81.4773L81.4018 17.8927L81.6471 18.119C81.4962 18.5969 81.2635 19.0057 80.9491 19.3452C80.6473 19.6848 80.27 19.9489 79.8172 20.1375C79.377 20.3136 78.8677 20.4016 78.2892 20.4016ZM79.0249 18.4397C79.6034 18.4397 80.0562 18.2951 80.3832 18.0058C80.7227 17.704 80.968 17.3016 81.1189 16.7985C81.2824 16.2829 81.3641 15.7295 81.3641 15.1384C81.3641 14.5096 81.2824 13.9499 81.1189 13.4595C80.968 12.9564 80.7227 12.5603 80.3832 12.271C80.0436 11.9817 79.5908 11.8371 79.0249 11.8371C78.4841 11.8371 78.0314 11.988 77.6667 12.2899C77.3145 12.5791 77.0504 12.9753 76.8743 13.4783C76.7108 13.9688 76.6291 14.5222 76.6291 15.1384C76.6291 15.7169 76.7108 16.264 76.8743 16.7796C77.0504 17.2827 77.3145 17.6851 77.6667 17.987C78.0314 18.2888 78.4841 18.4397 79.0249 18.4397Z" fill="white"/>
<path d="M86.4216 23.005V10.1016H88.742L88.7985 12.2521L88.5533 12.1389C88.8048 11.3969 89.2136 10.8373 89.7795 10.46C90.358 10.0701 91.0309 9.87519 91.798 9.87519C92.7538 9.87519 93.5461 10.1141 94.175 10.592C94.8164 11.0699 95.2943 11.7051 95.6087 12.4974C95.9231 13.2897 96.0803 14.17 96.0803 15.1384C96.0803 16.1068 95.9168 16.9872 95.5898 17.7795C95.2754 18.5718 94.7975 19.2069 94.1561 19.6848C93.5273 20.1627 92.735 20.4016 91.7792 20.4016C91.2761 20.4016 90.8045 20.3136 90.3643 20.1375C89.9367 19.9615 89.5657 19.7099 89.2513 19.383C88.9495 19.056 88.7357 18.6724 88.6099 18.2322L88.8363 18.0436V23.005H86.4216ZM91.2132 18.4397C91.9427 18.4397 92.5149 18.1505 92.9299 17.572C93.3575 16.9809 93.5713 16.1697 93.5713 15.1384C93.5713 14.1072 93.3575 13.3023 92.9299 12.7237C92.5149 12.1327 91.9427 11.8371 91.2132 11.8371C90.7227 11.8371 90.3014 11.9629 89.9493 12.2144C89.5972 12.4534 89.3205 12.8181 89.1192 13.3085C88.9306 13.799 88.8363 14.409 88.8363 15.1384C88.8363 15.8678 88.9306 16.4778 89.1192 16.9683C89.3079 17.4588 89.5783 17.8298 89.9304 18.0813C90.2951 18.3203 90.7227 18.4397 91.2132 18.4397Z" fill="white"/>
<path d="M97.9541 23.005V10.1016H100.274L100.331 12.2521L100.086 12.1389C100.337 11.3969 100.746 10.8373 101.312 10.46C101.891 10.0701 102.563 9.87519 103.331 9.87519C104.286 9.87519 105.079 10.1141 105.707 10.592C106.349 11.0699 106.827 11.7051 107.141 12.4974C107.456 13.2897 107.613 14.17 107.613 15.1384C107.613 16.1068 107.449 16.9872 107.122 17.7795C106.808 18.5718 106.33 19.2069 105.689 19.6848C105.06 20.1627 104.267 20.4016 103.312 20.4016C102.809 20.4016 102.337 20.3136 101.897 20.1375C101.469 19.9615 101.098 19.7099 100.784 19.383C100.482 19.056 100.268 18.6724 100.142 18.2322L100.369 18.0436V23.005H97.9541ZM102.746 18.4397C103.475 18.4397 104.047 18.1505 104.462 17.572C104.89 16.9809 105.104 16.1697 105.104 15.1384C105.104 14.1072 104.89 13.3023 104.462 12.7237C104.047 12.1327 103.475 11.8371 102.746 11.8371C102.255 11.8371 101.834 11.9629 101.482 12.2144C101.13 12.4534 100.853 12.8181 100.652 13.3085C100.463 13.799 100.369 14.409 100.369 15.1384C100.369 15.8678 100.463 16.4778 100.652 16.9683C100.84 17.4588 101.111 17.8298 101.463 18.0813C101.828 18.3203 102.255 18.4397 102.746 18.4397Z" fill="white"/>
<path d="M53.9753 40.945V29.6828H49.9006V27.5511H60.4836V29.6828H56.4277V40.945H53.9753Z" fill="white"/>
<path d="M64.8773 41.1714C63.8712 41.1714 62.9971 40.9576 62.2551 40.53C61.5131 40.0898 60.9409 39.4736 60.5385 38.6812C60.136 37.8889 59.9348 36.9646 59.9348 35.9081C59.9348 34.8517 60.136 33.9336 60.5385 33.1539C60.9409 32.3616 61.5068 31.7453 62.2363 31.3052C62.9783 30.865 63.8398 30.6449 64.8207 30.6449C65.7765 30.6449 66.6129 30.8587 67.3297 31.2863C68.0592 31.7139 68.6188 32.3301 69.0087 33.135C69.3985 33.9399 69.5935 34.9083 69.5935 36.0402V36.5873H62.4438C62.4941 37.4676 62.733 38.1342 63.1606 38.5869C63.6008 39.0271 64.1793 39.2472 64.8962 39.2472C65.437 39.2472 65.8834 39.1277 66.2356 38.8888C66.6003 38.6372 66.8518 38.2914 66.9902 37.8512L69.4614 38.0021C69.1847 38.9831 68.6377 39.7565 67.8202 40.3225C67.0153 40.8884 66.0343 41.1714 64.8773 41.1714ZM62.4438 34.9649H67.1033C67.053 34.1474 66.8204 33.5438 66.4054 33.1539C65.9903 32.7515 65.4621 32.5502 64.8207 32.5502C64.1793 32.5502 63.6448 32.7577 63.2172 33.1728C62.8022 33.5878 62.5444 34.1852 62.4438 34.9649Z" fill="white"/>
<path d="M75.8576 41.1714C74.8514 41.1714 73.9774 40.9576 73.2354 40.53C72.4934 40.0898 71.9149 39.4736 71.4998 38.6812C71.0974 37.8889 70.8962 36.9646 70.8962 35.9081C70.8962 34.8517 71.0974 33.9336 71.4998 33.1539C71.9149 32.3616 72.4934 31.7453 73.2354 31.3052C73.9774 30.865 74.8514 30.6449 75.8576 30.6449C76.7128 30.6449 77.4736 30.7958 78.1402 31.0977C78.8067 31.3995 79.3475 31.8334 79.7625 32.3993C80.1901 32.9527 80.4542 33.6318 80.5549 34.4367L78.0647 34.5688C77.9641 33.9274 77.7126 33.4432 77.3101 33.1162C76.9203 32.7766 76.4361 32.6068 75.8576 32.6068C75.0778 32.6068 74.4742 32.9024 74.0466 33.4935C73.619 34.072 73.4052 34.8769 73.4052 35.9081C73.4052 36.952 73.619 37.7632 74.0466 38.3417C74.4742 38.9202 75.0778 39.2094 75.8576 39.2094C76.4487 39.2094 76.9391 39.0397 77.329 38.7001C77.7314 38.3605 77.9767 37.8323 78.0647 37.1155L80.5549 37.2287C80.4542 38.0336 80.1964 38.7315 79.7814 39.3226C79.3664 39.9137 78.8256 40.3728 78.159 40.6998C77.4925 41.0142 76.7253 41.1714 75.8576 41.1714Z" fill="white"/>
<path d="M82.2397 40.945V27.5511H84.6544V33.1728H84.3525C84.4532 32.5943 84.6544 32.1226 84.9562 31.7579C85.258 31.3806 85.629 31.1039 86.0692 30.9279C86.5094 30.7392 86.9936 30.6449 87.5218 30.6449C88.2638 30.6449 88.8863 30.8084 89.3894 31.1354C89.905 31.4498 90.2886 31.8963 90.5401 32.4748C90.8042 33.0533 90.9363 33.7198 90.9363 34.4744V40.945H88.5216V35.0592C88.5216 34.2418 88.3833 33.6318 88.1066 33.2294C87.8299 32.8143 87.396 32.6068 86.8049 32.6068C86.151 32.6068 85.629 32.8206 85.2392 33.2482C84.8493 33.6758 84.6544 34.2984 84.6544 35.1158V40.945H82.2397Z" fill="white"/>
<path d="M93.2563 40.945V30.8713H95.4446L95.539 33.701L95.256 33.5878C95.3566 32.8835 95.5641 32.3176 95.8785 31.89C96.1929 31.4624 96.5765 31.148 97.0293 30.9467C97.482 30.7455 97.9788 30.6449 98.5196 30.6449C99.2616 30.6449 99.8841 30.8084 100.387 31.1354C100.903 31.4624 101.293 31.9151 101.557 32.4936C101.821 33.0596 101.953 33.7198 101.953 34.4744V40.945H99.5383V35.2479C99.5383 34.6819 99.4817 34.204 99.3685 33.8142C99.2553 33.4243 99.0667 33.1287 98.8025 32.9275C98.551 32.7137 98.2115 32.6068 97.7839 32.6068C97.1425 32.6068 96.6268 32.8332 96.237 33.286C95.8597 33.7387 95.671 34.3927 95.671 35.2479V40.945H93.2563Z" fill="white"/>
<path d="M108.723 41.1714C107.73 41.1714 106.856 40.9576 106.101 40.53C105.359 40.0898 104.781 39.4736 104.366 38.6812C103.963 37.8889 103.762 36.9646 103.762 35.9081C103.762 34.8391 103.963 33.9148 104.366 33.135C104.781 32.3427 105.359 31.7328 106.101 31.3052C106.856 30.865 107.73 30.6449 108.723 30.6449C109.717 30.6449 110.585 30.865 111.327 31.3052C112.069 31.7328 112.641 32.3427 113.043 33.135C113.458 33.9148 113.666 34.8391 113.666 35.9081C113.666 36.9646 113.458 37.8889 113.043 38.6812C112.641 39.4736 112.069 40.0898 111.327 40.53C110.585 40.9576 109.717 41.1714 108.723 41.1714ZM108.723 39.2094C109.503 39.2094 110.1 38.9202 110.515 38.3417C110.943 37.7632 111.157 36.952 111.157 35.9081C111.157 34.8769 110.943 34.072 110.515 33.4935C110.1 32.9024 109.503 32.6068 108.723 32.6068C107.944 32.6068 107.34 32.9024 106.912 33.4935C106.485 34.072 106.271 34.8769 106.271 35.9081C106.271 36.952 106.485 37.7632 106.912 38.3417C107.34 38.9202 107.944 39.2094 108.723 39.2094Z" fill="white"/>
<path d="M115.718 40.945V27.5511H118.132V40.945H115.718Z" fill="white"/>
<path d="M125.156 41.1714C124.163 41.1714 123.289 40.9576 122.534 40.53C121.792 40.0898 121.213 39.4736 120.798 38.6812C120.396 37.8889 120.195 36.9646 120.195 35.9081C120.195 34.8391 120.396 33.9148 120.798 33.135C121.213 32.3427 121.792 31.7328 122.534 31.3052C123.289 30.865 124.163 30.6449 125.156 30.6449C126.15 30.6449 127.017 30.865 127.759 31.3052C128.501 31.7328 129.074 32.3427 129.476 33.135C129.891 33.9148 130.099 34.8391 130.099 35.9081C130.099 36.9646 129.891 37.8889 129.476 38.6812C129.074 39.4736 128.501 40.0898 127.759 40.53C127.017 40.9576 126.15 41.1714 125.156 41.1714ZM125.156 39.2094C125.936 39.2094 126.533 38.9202 126.948 38.3417C127.376 37.7632 127.59 36.952 127.59 35.9081C127.59 34.8769 127.376 34.072 126.948 33.4935C126.533 32.9024 125.936 32.6068 125.156 32.6068C124.376 32.6068 123.773 32.9024 123.345 33.4935C122.918 34.072 122.704 34.8769 122.704 35.9081C122.704 36.952 122.918 37.7632 123.345 38.3417C123.773 38.9202 124.376 39.2094 125.156 39.2094Z" fill="white"/>
<path d="M136.263 44.0011C135.383 44.0011 134.628 43.8816 133.999 43.6426C133.371 43.4037 132.861 43.0641 132.471 42.6239C132.094 42.1963 131.83 41.6996 131.679 41.1336L134.169 40.9639C134.295 41.3412 134.509 41.6367 134.811 41.8505C135.125 42.0643 135.609 42.1712 136.263 42.1712C137.005 42.1712 137.577 42.0014 137.98 41.6618C138.382 41.3349 138.583 40.8192 138.583 40.115V38.8322C138.345 39.3226 137.961 39.7188 137.433 40.0206C136.905 40.3099 136.313 40.4545 135.659 40.4545C134.829 40.4545 134.087 40.2533 133.433 39.8508C132.792 39.4358 132.289 38.8636 131.924 38.1342C131.56 37.3922 131.377 36.537 131.377 35.5686C131.377 34.6002 131.553 33.7513 131.905 33.0219C132.27 32.2798 132.773 31.7013 133.415 31.2863C134.056 30.8587 134.792 30.6449 135.622 30.6449C136.351 30.6449 136.98 30.8084 137.508 31.1354C138.036 31.4624 138.42 31.8963 138.659 32.437V30.8713H141.017V40.0584C141.017 40.9136 140.816 41.6367 140.413 42.2278C140.023 42.8189 139.47 43.2591 138.753 43.5483C138.049 43.8501 137.219 44.0011 136.263 44.0011ZM136.225 38.5681C136.942 38.5681 137.514 38.3039 137.942 37.7757C138.37 37.235 138.59 36.4929 138.602 35.5497C138.615 34.9209 138.521 34.3864 138.319 33.9462C138.131 33.4935 137.854 33.1476 137.489 32.9087C137.137 32.6571 136.716 32.5314 136.225 32.5314C135.483 32.5314 134.905 32.8081 134.49 33.3614C134.087 33.9022 133.886 34.6316 133.886 35.5497C133.886 36.4678 134.094 37.2035 134.509 37.7569C134.936 38.2977 135.509 38.5681 136.225 38.5681Z" fill="white"/>
<path d="M144.009 43.7747V41.9071H145.291C145.618 41.9071 145.857 41.8568 146.008 41.7562C146.172 41.6556 146.298 41.4858 146.386 41.2468L146.669 40.5488H145.971L142.367 30.8713H144.876L147.404 38.2851L149.819 30.8713H152.328L148.385 42.0014C148.159 42.6302 147.838 43.083 147.423 43.3597C147.021 43.6363 146.455 43.7747 145.725 43.7747H144.009Z" fill="white"/>
<path d="M15.8758 34.5012C14.9304 33.3097 10.9025 28.2556 8.55808 25.3718C7.66642 24.2791 7.13604 22.5716 7.12836 20.811C7.12836 18.9972 7.62798 17.3732 8.53502 16.2425C10.9256 13.2753 14.9458 8.28185 15.8758 7.12836H24.913L15.6274 18.633C14.6282 19.9079 14.6358 21.6913 15.6428 22.9586L24.9207 34.5012H15.8758Z" fill="white"/>
<path d="M33.9655 41.3444C34.911 40.1529 38.9388 35.0988 41.2833 32.215C42.175 31.1223 42.7053 29.4148 42.713 27.6542C42.713 25.8404 42.2134 24.2164 41.3064 23.0857C38.9158 20.1185 34.8956 15.1251 33.9655 13.9716H24.9284L34.2139 25.4762C35.2132 26.7511 35.2055 28.5345 34.1986 29.8018L24.9207 41.3444H33.9655Z" fill="white"/>
</svg>
